<svg xmlns="http://www.w3.org/2000/svg" xmlns:xlink="http://www.w3.org/1999/xlink" viewBox="0 0 264 280">
  <defs>
    <path id="g" d="M0 0h264v280H0z"/>
  </defs>
  <defs>
    <path id="c" d="M12 160c0 66.274 53.726 120 120 120s120-53.726 120-120h12V0H0v160h12Z"/>
    <path id="e" d="M124 144.611V163h4c39.765 0 72 32.235 72 72v9H0v-9c0-39.765 32.235-72 72-72h4v-18.389c-17.237-8.189-29.628-24.924-31.695-44.73C38.48 99.058 34 94.052 34 88V74c0-5.946 4.325-10.882 10-11.834V56c0-30.928 25.072-56 56-56s56 25.072 56 56v6.166c5.675.952 10 5.888 10 11.834v14c0 6.052-4.48 11.058-10.305 11.881-2.067 19.806-14.458 36.541-31.695 44.73Z"/>
    <circle id="a" cx="120" cy="120" r="120"/>
  </defs>
  <g fill="none" fill-rule="evenodd">
    <g transform="translate(12 40)">
      <mask id="b" fill="#fff">
        <use xlink:href="#a"/>
      </mask>
      <use xlink:href="#a" fill="#E6E6E6"/>
      <g fill="#eee" mask="url(#b)">
        <path d="M0 0h240v240H0z"/>
      </g>
    </g>
    <mask id="d" fill="#fff">
      <use xlink:href="#c"/>
    </mask>
    <g mask="url(#d)">
      <g transform="translate(32 36)">
        <mask id="f" fill="#fff">
          <use xlink:href="#e"/>
        </mask>
        <use xlink:href="#e" fill="#D0C6AC"/>
        <g fill="#FFDBB4" mask="url(#f)">
          <use xlink:href="#g"/>
        </g>
        <path fill="#000" fill-opacity=".1" d="M156 79v23c0 30.928-25.072 56-56 56s-56-25.072-56-56V79v15c0 30.928 25.072 56 56 56s56-25.072 56-56V79Z" mask="url(#f)"/>
      </g>
      <g transform="translate(0 170)">
        <defs>
          <path id="h" d="M108 13.07c-17.919 2.006-31.72 7.482-31.996 21.575C50.146 45.568 32 71.165 32 100.999V110h200v-9c0-29.835-18.146-55.432-44.004-66.355-.276-14.093-14.077-19.57-31.996-21.574V32c0 13.255-10.745 24-24 24s-24-10.745-24-24V13.07Z"/>
        </defs>
        <mask id="i" fill="#fff">
          <use xlink:href="#h"/>
        </mask>
        <use xlink:href="#h" fill="#B7C1DB"/>
        <g fill="#262E33" mask="url(#i)">
          <path d="M0 0h264v110H0z"/>
        </g>
        <path fill="#F4F4F4" d="M102 61.74V110h-7V58.15a64.54 64.54 0 0 0 7 3.59Zm67-3.59V98.5a3.5 3.5 0 1 1-7 0V61.74a64.54 64.54 0 0 0 7-3.59Z" mask="url(#i)"/>
        <path fill="#000" fill-opacity=".16" d="M90.96 12.724C75.91 15.571 65.5 21.243 65.5 32.308 65.5 52.02 98.538 68 132 68s66.5-15.98 66.5-35.692c0-11.065-10.41-16.737-25.46-19.584 9.085 3.35 14.96 8.982 14.96 18.353C188 51.469 160.179 68 132 68S76 51.469 76 31.077c0-9.37 5.875-15.003 14.96-18.353Z" mask="url(#i)"/>
      </g>
      <g fill="#000">
        <path fill-opacity=".7" d="M118 149c0 7.732 6.268 14 14 14s14-6.268 14-14"/>
        <path fill-opacity=".16" d="M120 130c0 4.418 5.373 8 12 8s12-3.582 12-8"/>
        <g fill-opacity=".6" transform="translate(76 90)">
          <circle cx="30" cy="22" r="6"/>
          <circle cx="82" cy="22" r="6"/>
        </g>
        <path fill-opacity=".6" fill-rule="nonzero" d="M91.63 99.159c3.915-5.51 14.648-8.598 23.893-6.328a2 2 0 0 0 .954-3.884c-10.737-2.637-23.165.94-28.107 7.894a2 2 0 0 0 3.26 2.318Zm80.74 0c-3.915-5.51-14.648-8.598-23.893-6.328a2 2 0 0 1-.954-3.884c10.737-2.637 23.165.94 28.108 7.894a2 2 0 0 1-3.26 2.318Z"/>
      </g>
      <defs>
        <path id="l" d="M94.252 52.022c.123-.054-.182-.075-.916-.062.892-.002 1.197.019.916.062m-8.135-15.72c-.002-.02.017.15 0 0m107.648 34.464c-.264-3.317-.732-6.614-1.518-9.855-.625-2.576-1.478-5.033-2.487-7.491-.61-1.485-2.032-3.524-2.2-5.126-.165-1.577 1.067-3.325 1.33-5.162a15.981 15.981 0 0 0-.156-5.438c-.833-4.023-3.594-7.764-7.857-8.813-.952-.234-2.964.055-3.636-.5-.771-.635-1.308-2.8-2.006-3.669-1.99-2.476-5.095-4.07-8.37-3.514-2.41.409-1.026.907-2.833-.512-1.005-.788-1.756-1.993-2.732-2.847-1.467-1.283-3.15-2.38-4.892-3.282-4.557-2.358-9.754-4.072-14.844-4.908-9.285-1.524-19.195-.195-28.195 2.22-4.479 1.201-8.987 2.726-13.147 4.743-1.783.864-2.813 1.582-4.673 1.808-2.928.357-5.409.339-8.183 1.581-8.536 3.822-12.381 12.689-9.06 21.174a14.64 14.64 0 0 0 2.82 4.584c1.521 1.68 2.072 1.35.762 3.282a52.787 52.787 0 0 0-4.955 9.172c-3.529 8.402-4.12 17.864-3.89 26.824.081 3.137.216 6.313.71 9.42.214 1.344.274 3.872 1.282 4.87.512.506 1.241.788 1.969.587 1.71-.474 1.121-1.735 1.161-2.906.2-5.884-.07-11.089 1.33-16.902 1.033-4.294 2.755-8.195 4.988-12.035 2.838-4.884 5.903-9.173 9.807-13.355.917-.984 1.118-1.4 2.349-1.472.932-.054 2.295.584 3.2.805 1.999.487 4 .968 6.034 1.296 3.74.603 7.444.644 11.217.525 7.426-.232 14.885-.753 22.085-2.623 4.782-1.242 9.022-3.47 13.602-5.105.082-.029 1.23-.847 1.43-.814.282.047 1.978 1.826 2.264 2.05 2.226 1.746 4.667 2.479 7.07 3.83 2.964 1.667.094-.718 1.728 1.359.477.605.72 1.726 1.103 2.411a18.08 18.08 0 0 0 4.93 5.624c1.956 1.47 4.894 2.18 5.891 4.095.769 1.477 1.028 3.484 1.648 5.06 1.628 4.136 3.777 7.992 5.926 11.887 1.732 3.14 3.625 5.881 3.818 9.468.067 1.248-1.121 8.737 1.773 6.46.429-.338 1.353-4.156 1.543-4.804.772-2.633 1.046-5.381 1.395-8.086.694-5.38.923-10.498.47-15.916"/>
        <use xlink:href="#g" id="j"/>
      </defs>
      <mask id="k" fill="#fff">
        <use xlink:href="#j"/>
      </mask>
      <g mask="url(#k)">
        <g transform="translate(-1)">
          <mask id="m" fill="#fff">
            <use xlink:href="#l"/>
          </mask>
          <use xlink:href="#l" fill="#28354B"/>
          <g fill="#4A312C" mask="url(#m)">
            <use xlink:href="#g"/>
          </g>
        </g>
      </g>
    </g>
  </g>
</svg>
